<?xml version="1.0" standalone="no"?>
<!DOCTYPE svg PUBLIC "-//W3C//DTD SVG 1.1//EN" "http://www.w3.org/Graphics/SVG/1.1/DTD/svg11.dtd" >
<svg xmlns="http://www.w3.org/2000/svg">
<metadata></metadata>
<defs>
<font id="dinmediumalternate" horiz-adv-x="1024" >
<font-face units-per-em="2048" ascent="1638" descent="-410" />
<missing-glyph horiz-adv-x="491" />
<glyph horiz-adv-x="2048" />
<glyph horiz-adv-x="2048" />
<glyph unicode="&#xd;" horiz-adv-x="491" />
<glyph unicode=" "  horiz-adv-x="491" />
<glyph unicode="&#x09;" horiz-adv-x="491" />
<glyph unicode="&#xa0;" horiz-adv-x="491" />
<glyph unicode="!" horiz-adv-x="679" d="M242 127q0 55 38.5 94t94.5 39q55 0 94 -39t39 -94t-39 -94t-94 -39t-94 39t-39 94zM248 1458h254l-47 -1024h-158z" />
<glyph unicode="&#x22;" horiz-adv-x="909" d="M160 1067v391h207v-391h-207zM543 1067v391h207v-391h-207z" />
<glyph unicode="#" horiz-adv-x="1376" d="M139 426v192h193l41 254h-166v193h194l64 401h219l-63 -401h278l64 401h217l-64 -401h160v-193h-189l-40 -254h161v-192h-192l-68 -426h-217l68 426h-281l-65 -426h-220l68 426h-162zM549 618h280l39 254h-278z" />
<glyph unicode="$" horiz-adv-x="1245" d="M61 180l148 146q129 -129 338 -140v455l-53 6q-170 20 -276.5 119.5t-106.5 275.5t111.5 291t305.5 133v185h168v-183q233 -14 391 -163l-141 -140q-104 98 -268 111v-442l70 -11q180 -27 272 -108q119 -104 119 -299q0 -180 -121 -292t-322 -130v-227h-168v221 q-289 12 -467 192zM326 1051q0 -86 57.5 -137.5t163.5 -65.5v426q-104 -10 -162.5 -70.5t-58.5 -152.5zM678 190q242 23 242 220q0 100 -58 151q-49 43 -184 64v-435z" />
<glyph unicode="%" horiz-adv-x="1724" d="M119 985v207q0 129 82 205t205 76t204.5 -76t81.5 -205v-207q0 -129 -82 -203.5t-204 -74.5q-123 0 -205 74.5t-82 203.5zM276 991q0 -145 130 -145q129 0 129 145v195q0 147 -129 147t-130 -147v-195zM434 0l688 1458h166l-686 -1458h-168zM1032 266v207q0 129 82 205 t205 76t205 -76t82 -205v-207q0 -129 -82 -204.5t-205 -75.5t-205 75.5t-82 204.5zM1190 272q0 -147 129 -147t129 147v195q0 147 -129 147t-129 -147v-195z" />
<glyph unicode="&#x26;" horiz-adv-x="1495" d="M139 422q0 137 90 246q63 78 199 166q-152 176 -152 313q0 141 98.5 232t258.5 91q154 0 250 -92t96 -233q0 -150 -156 -258l-106 -74l307 -367q76 106 78 293h201q-10 -291 -146 -448l244 -291h-268l-119 143q-178 -156 -404 -155q-225 0 -348 116.5t-123 317.5z M346 426q0 -109 75 -178.5t189 -69.5q152 0 279 113l-346 411q-100 -70 -137 -114q-59 -70 -60 -162zM489 1145q0 -70 113 -201q20 14 70 47q106 72 106 152q0 61 -41 103t-104 42q-66 0 -105 -40t-39 -103z" />
<glyph unicode="'" horiz-adv-x="526" d="M160 1067v391h207v-391h-207z" />
<glyph unicode="(" horiz-adv-x="649" d="M176 240v979q0 154 47 237q37 66 166 195l141 -142l-63 -63q-31 -35 -51 -72q-31 -57 -31 -168v-954q0 -111 31 -168q22 -43 114 -135l-141 -142q-72 72 -92 95q-47 51 -74 100q-47 84 -47 238z" />
<glyph unicode=")" horiz-adv-x="649" d="M119 -49l63 63q29 35 49 72q31 57 31 166v954q0 109 -31 166q-27 49 -112 135l143 144q66 -66 90 -95q47 -51 74 -100q49 -88 49 -237v-979q0 -150 -49 -238q-39 -70 -164 -195z" />
<glyph unicode="*" horiz-adv-x="993" d="M125 954l235 125l-235 127l76 133l227 -141l-8 266h153l-8 -266l228 141l75 -133l-235 -127l235 -125l-75 -133l-228 142l8 -269h-153l8 269l-227 -142z" />
<glyph unicode="+" horiz-adv-x="1091" d="M104 461v194h345v342h194v-342h344v-194h-344v-344h-194v344h-345z" />
<glyph unicode="," horiz-adv-x="557" d="M160 238h237v-361l-237 -194v555z" />
<glyph unicode="-" horiz-adv-x="872" d="M137 471v195h598v-195h-598z" />
<glyph unicode="." horiz-adv-x="581" d="M141 143q0 61 44 104.5t106 43.5q61 0 105 -43.5t44 -104.5t-44 -105t-105 -44t-105.5 44t-44.5 105z" />
<glyph unicode="/" horiz-adv-x="778" d="M0 -152l584 1762h200l-583 -1762h-201z" />
<glyph unicode="0" horiz-adv-x="1093" d="M125 406v411q0 190 125 307q117 111 297 111t297 -111q125 -117 125 -307v-411q0 -190 -125 -308q-117 -111 -297 -110q-180 0 -297 110q-125 117 -125 308zM334 412q0 -106 57.5 -172t155.5 -66t155.5 66t57.5 172v399q0 106 -57.5 172t-155.5 66t-155.5 -65.5 t-57.5 -172.5v-399z" />
<glyph unicode="1" horiz-adv-x="833" d="M106 745v232l287 246h209v-1223h-209v995z" />
<glyph unicode="2" horiz-adv-x="1081" d="M86 0v186l496 451q141 129 141 248q0 88 -59.5 146.5t-151.5 58.5q-90 0 -150 -56q-66 -59 -65 -160h-209q0 178 122 290t302 112q184 0 302 -109.5t118 -279.5q0 -104 -66 -203q-47 -72 -159 -178l-338 -320h596v-186h-879z" />
<glyph unicode="3" horiz-adv-x="1077" d="M72 158h209q6 -111 77 -170q63 -51 162 -51q104 0 171 64.5t67 176.5q0 240 -246 240h-35v182h35q221 0 221 223q0 106 -61.5 166t-153.5 60q-94 0 -152.5 -56.5t-66.5 -152.5h-209q8 182 131 290q117 104 297 105q186 0 305 -113.5t119 -294.5q0 -223 -180 -311 q205 -90 205 -342q0 -203 -131 -317q-123 -106 -316 -107q-188 0 -309 96q-133 109 -139 312z" />
<glyph unicode="4" horiz-adv-x="1159" d="M78 61v195l518 1044h223l-518 -1044h401v360h201v-360h174v-195h-174v-313h-201v313h-624z" />
<glyph unicode="5" horiz-adv-x="1095" d="M125 141h209q27 -203 213 -202q96 0 153 57q68 68 68 256q0 305 -211 305q-168 0 -209 -131h-188v797h784v-187h-596v-385q80 84 240 84q168 0 262 -94q127 -127 127 -389q0 -264 -123 -387q-115 -115 -307 -115q-197 0 -309 113q-98 98 -113 278z" />
<glyph unicode="6" horiz-adv-x="1101" d="M94 446q0 195 125 418l350 627h224l-359 -621q68 35 168 35q176 0 291 -122.5t115 -325.5q0 -211 -127 -340t-330 -129q-205 0 -331 122.5t-126 335.5zM303 451q0 -129 68.5 -206t179.5 -77t179.5 77t68.5 206q0 123 -66.5 203.5t-181.5 80.5q-111 0 -179.5 -77.5 t-68.5 -206.5z" />
<glyph unicode="7" horiz-adv-x="1081" d="M92 807v416h918v-187l-566 -1282h-223l565 1282h-493v-229h-201z" />
<glyph unicode="8" horiz-adv-x="1124" d="M113 412q0 221 200 342q-178 109 -178 313q0 180 125 293q119 111 301 110q182 0 304 -111.5t122 -291.5q0 -207 -176 -313q201 -121 201 -342q0 -193 -129 -308.5t-322 -115.5t-317 112q-131 119 -131 312zM322 416q0 -102 69.5 -172t169.5 -70q102 0 172 71t70 171 q0 102 -70.5 172.5t-171.5 70.5q-100 0 -169.5 -70.5t-69.5 -172.5zM344 1061q0 -96 61.5 -158.5t155.5 -62.5t155.5 62.5t61.5 158.5t-61.5 159.5t-155.5 63.5t-155.5 -63.5t-61.5 -159.5z" />
<glyph unicode="9" horiz-adv-x="1101" d="M94 766q0 211 127 340t330 129q205 0 331 -123t126 -336q0 -199 -123 -418l-353 -626h-223l359 620q-68 -35 -166 -35q-176 0 -292 123t-116 326zM303 772q0 -123 66.5 -204t181.5 -81q111 0 179.5 78t68.5 207t-68.5 206t-179.5 77t-179.5 -77t-68.5 -206z" />
<glyph unicode=":" horiz-adv-x="634" d="M195 143q0 61 44 104.5t105 43.5t104.5 -43.5t43.5 -104.5t-43 -105t-105 -44q-61 0 -105 44t-44 105zM195 711q0 61 44 105t105 44t104.5 -44t43.5 -105t-43 -105.5t-105 -44.5q-61 0 -105 44t-44 106z" />
<glyph unicode=";" horiz-adv-x="620" d="M195 711q0 61 44 105t105 44t104.5 -44t43.5 -105t-43 -105.5t-105 -44.5q-61 0 -105 44t-44 106zM225 238h238v-361l-238 -194v555z" />
<glyph unicode="&#x3c;" horiz-adv-x="2103" d="M250 428v266l702 -706v1525h199v-1525l702 706v-266l-800 -803z" />
<glyph unicode="=" horiz-adv-x="1091" d="M104 272v195h883v-195h-883zM104 670v194h883v-194h-883z" />
<glyph unicode="&#x3e;" horiz-adv-x="2103" d="M250 444v267l803 802l802 -802v-267l-704 707v-1526h-197v1526z" />
<glyph unicode="?" horiz-adv-x="1046" d="M145 1077q0 172 117 282.5t291 110.5q172 0 289 -104q121 -111 121 -287q0 -115 -99 -252l-157 -221q-37 -51 -37 -110v-62h-209v72q0 109 69 203l160 215q63 86 64 155q0 88 -56.5 146.5t-144.5 58.5q-92 0 -145.5 -60.5t-53.5 -146.5h-209zM432 127q0 55 38 94t93 39 t94 -39t39 -94t-39 -94t-94 -39t-93 39t-38 94z" />
<glyph unicode="@" horiz-adv-x="1507" d="M131 334v651q0 236 120 357.5t353 121.5h299q229 0 351 -121.5t122 -357.5v-989l-196 4v102q-98 -117 -260 -116q-166 0 -269 114q-61 70 -80 181q-12 66 -12 198q0 270 88 377q96 117 271 117q160 0 258 -115v125q0 143 -75 220t-218 77h-258q-139 0 -215 -76t-76 -221 v-639q0 -86 21.5 -132t80.5 -93l-143 -144q-92 76 -127 151t-35 208zM760 479q0 -152 39 -223q49 -92 168 -92q209 0 209 315q0 317 -209 318q-119 0 -168 -92q-39 -74 -39 -226z" />
<glyph unicode="A" horiz-adv-x="1280" d="M16 0l535 1458h178l535 -1458h-236l-100 293h-576l-100 -293h-236zM418 481h448l-221 647z" />
<glyph unicode="B" horiz-adv-x="1357" d="M190 0v1458h568q203 0 321.5 -107.5t118.5 -291.5q0 -111 -61 -199q-55 -78 -136 -110q220 -88 220 -338q0 -197 -121 -304.5t-320 -107.5h-590zM412 199h348q113 0 176 61.5t63 161.5q0 98 -63.5 159.5t-175.5 61.5h-348v-444zM412 842h327q109 0 173.5 54.5t64.5 154.5 t-64.5 154.5t-173.5 54.5h-327v-418z" />
<glyph unicode="C" horiz-adv-x="1175" d="M137 729q0 254 17 344q27 143 125 242q155 155 380 155h3q231 0 407 -172l-147 -149q-123 123 -260 123q-133 0 -216 -88q-66 -70 -79 -215q-6 -51 -7 -240q0 -188 7 -240q14 -145 79 -215q82 -88 216 -88q137 0 260 123l147 -149q-176 -172 -407 -172q-227 0 -383 155 q-98 98 -125 242q-16 90 -17 344z" />
<glyph unicode="D" horiz-adv-x="1363" d="M190 0v1458h512q240 0 377 -137q104 -104 133 -270q15 -87 15 -312q0 -231 -15 -321q-29 -176 -133 -281q-137 -137 -377 -137h-512zM412 199h268q160 0 248 98q51 57 67 178q11 78 11 264q0 182 -11 254q-16 111 -67 168q-88 98 -248 99h-268v-1061z" />
<glyph unicode="E" horiz-adv-x="1234" d="M190 0v1458h932v-198h-710v-426h606v-197h-606v-438h710v-199h-932z" />
<glyph unicode="F" horiz-adv-x="1198" d="M190 0v1458h932v-198h-710v-445h606v-199h-606v-616h-222z" />
<glyph unicode="G" horiz-adv-x="1312" d="M137 729q0 254 17 344q27 143 125 242q155 155 380 155h3q143 0 245 -47q92 -43 195 -145l-150 -150q-78 78 -131 107q-68 37 -159 37q-133 0 -218 -90q-66 -70 -79 -215q-6 -51 -7 -238q0 -188 7 -240q14 -145 79 -215q82 -88 218 -88q143 0 233 103q72 82 72 231v80 h-305v188h526v-219q0 -276 -129 -413q-158 -168 -397 -168q-227 0 -383 155q-98 98 -125 242q-16 90 -17 344z" />
<glyph unicode="H" horiz-adv-x="1415" d="M190 0v1458h222v-622h592v622h221v-1458h-221v637h-592v-637h-222z" />
<glyph unicode="I" horiz-adv-x="602" d="M190 0v1458h222v-1458h-222z" />
<glyph unicode="J" horiz-adv-x="1036" d="M27 129l147 145q88 -88 207 -88q125 0 194.5 75t69.5 216v981h221v-997q0 -219 -141 -350q-135 -123 -344 -123q-213 0 -354 141z" />
<glyph unicode="K" horiz-adv-x="1347" d="M190 0v1458h222v-733l596 733h270l-473 -571l522 -887h-260l-410 719l-245 -295v-424h-222z" />
<glyph unicode="L" horiz-adv-x="1175" d="M190 0v1458h222v-1259h702v-199h-924z" />
<glyph unicode="M" horiz-adv-x="1665" d="M190 0v1458h222l426 -907l417 907h222v-1458h-222v975l-335 -711h-164l-344 711v-975h-222z" />
<glyph unicode="N" horiz-adv-x="1478" d="M190 0v1458h203l674 -1024v1024h221v-1458h-203l-673 1026v-1026h-222z" />
<glyph unicode="O" horiz-adv-x="1323" d="M137 729q0 254 17 344q27 143 125 242q155 155 380 155h3q229 0 385 -155q98 -98 122 -242q17 -88 17 -344t-17 -344q-25 -143 -122 -242q-155 -155 -382 -155h-3q-227 0 -383 155q-98 98 -125 242q-16 90 -17 344zM358 729q0 -186 7 -237q14 -145 79 -216 q84 -90 218 -90q133 0 217 90q66 70 79 216q7 51 7 237t-7 238q-14 145 -79 215q-84 90 -217 90t-218 -90q-66 -70 -79 -215q-6 -51 -7 -238z" />
<glyph unicode="P" horiz-adv-x="1288" d="M190 0v1458h553q211 0 339 -124.5t128 -317.5t-128 -318t-339 -125h-331v-573h-222zM412 774h319q117 0 187.5 64.5t70.5 177.5q0 115 -70.5 179.5t-187.5 64.5h-319v-486z" />
<glyph unicode="Q" horiz-adv-x="1323" d="M137 729q0 254 17 344q27 143 125 242q155 155 380 155h3q229 0 385 -155q98 -98 122 -242q16 -88 17 -344q0 -227 -10 -309q-18 -133 -84 -221l143 -142l-123 -123l-145 146q-131 -92 -305 -92q-227 0 -383 155q-98 98 -125 242q-16 90 -17 344zM358 729q0 -186 7 -237 q14 -145 79 -216q84 -90 218 -90q84 0 149 47l-154 154l123 123l142 -141q43 86 43 360q0 186 -7 238q-14 145 -79 215q-84 90 -217 90t-218 -90q-66 -70 -79 -215q-6 -51 -7 -238z" />
<glyph unicode="R" horiz-adv-x="1341" d="M190 0v1458h566q205 0 328.5 -118.5t123.5 -307.5q0 -150 -80.5 -251t-209.5 -136l335 -645h-258l-307 614h-276v-614h-222zM412 803h327q113 0 180.5 60.5t67.5 166.5t-67.5 168t-180.5 62h-327v-457z" />
<glyph unicode="S" horiz-adv-x="1208" d="M61 180l148 146q139 -139 373 -140q143 0 222 58.5t79 165.5q0 98 -58 151q-49 45 -159 62l-172 24q-180 27 -277 117q-106 100 -106 278q0 193 131 310.5t356 117.5q274 0 453 -165l-142 -140q-119 113 -317 113q-125 0 -195.5 -63.5t-70.5 -163.5q0 -86 56 -136.5 t163 -66.5l166 -25q180 -27 272 -108q119 -104 119 -299q0 -199 -145.5 -313.5t-378.5 -114.5q-326 0 -517 192z" />
<glyph unicode="T" horiz-adv-x="1146" d="M61 1260v198h1024v-198h-401v-1260h-221v1260h-402z" />
<glyph unicode="U" horiz-adv-x="1382" d="M168 492v966h221v-956q0 -145 82 -230.5t219 -85.5t220 85t83 231v956h221v-966q0 -223 -149.5 -363.5t-374.5 -140.5t-373.5 140t-148.5 364z" />
<glyph unicode="V" horiz-adv-x="1155" d="M10 1458h230l335 -1061l336 1061h234l-483 -1458h-173z" />
<glyph unicode="W" horiz-adv-x="1783" d="M23 1458h233l254 -1042l293 1042h178l293 -1042l254 1042h233l-381 -1458h-192l-297 1022l-295 -1022h-193z" />
<glyph unicode="X" horiz-adv-x="1183" d="M20 0l451 748l-422 710h254l287 -522l289 522h254l-422 -710l452 -748h-256l-317 559l-316 -559h-254z" />
<glyph unicode="Y" horiz-adv-x="1114" d="M10 1458h242l305 -641l305 641h242l-436 -858v-600h-222v600z" />
<glyph unicode="Z" horiz-adv-x="1130" d="M98 0v190l674 1070h-645v198h905v-180l-678 -1079h678v-199h-934z" />
<glyph unicode="[" horiz-adv-x="710" d="M176 -152v1762h447v-187h-238v-1388h238v-187h-447z" />
<glyph unicode="\" horiz-adv-x="778" d="M0 1593h201l577 -1745h-200z" />
<glyph unicode="]" horiz-adv-x="710" d="M88 33h242v1392h-242v185h447v-1762h-447v185z" />
<glyph unicode="^" horiz-adv-x="1169" d="M137 821l352 652h191l350 -652h-217l-229 424l-230 -424h-217z" />
<glyph unicode="_" horiz-adv-x="1169" d="M0 -209h1169v-143h-1169v143z" />
<glyph unicode="`" d="M233 1559h232l153 -332h-157z" />
<glyph unicode="a" horiz-adv-x="1085" d="M88 305q0 135 92 217t266 82h275v74q0 194 -225 194h-2q-150 0 -228 -100l-137 129q72 84 160 119q80 31 213 31q428 0 428 -357v-694h-205v94q-106 -106 -276 -106q-186 0 -279 94q-82 84 -82 223zM291 309q0 -147 190 -147q133 0 195 59q45 43 45 154v84h-244 q-186 0 -186 -150z" />
<glyph unicode="b" horiz-adv-x="1132" d="M166 0v1458h209v-524q98 117 272 117q160 0 252 -93q117 -116 117 -438q0 -324 -117 -440q-92 -92 -254 -92q-172 0 -274 123v-111h-205zM375 520q0 -164 39 -241q49 -104 178 -105q129 0 178 105q37 77 37 241t-37 242q-49 102 -178 102t-178 -102q-39 -78 -39 -242z " />
<glyph unicode="c" horiz-adv-x="993" d="M113 520q0 272 143 412q123 119 319 119q205 0 343 -146l-144 -139q-90 98 -199 98q-121 0 -192 -92q-61 -80 -61 -252q0 -174 61 -254q72 -92 192 -92q109 0 199 98l144 -137q-139 -147 -343 -147q-197 0 -319 121q-143 139 -143 411z" />
<glyph unicode="d" horiz-adv-x="1132" d="M117 520q0 322 116 438q92 92 252 93q174 0 273 -117v524h209v-1458h-205v111q-102 -123 -275 -123q-162 0 -254 92q-116 116 -116 435v5zM326 520q0 -164 39 -241q49 -104 178 -105q129 0 178 105q37 77 37 241t-37 242q-49 102 -178 102t-178 -102q-39 -78 -39 -242z " />
<glyph unicode="e" horiz-adv-x="1103" d="M113 520q0 250 118.5 390.5t321.5 140.5q205 0 326 -140q115 -135 114 -360v-92h-674q0 -135 69 -213t196 -78q145 0 252 106l133 -124q-84 -84 -166 -121q-92 -41 -223 -41q-467 0 -467 532zM319 604h467q-2 80 -28 141q-55 131 -205 132q-152 0 -207 -132 q-25 -55 -27 -141z" />
<glyph unicode="f" horiz-adv-x="671" d="M80 860v160h119v160q0 121 69 200q78 88 215 88h131v-178h-92q-115 0 -114 -121v-149h206v-160h-206v-860h-209v860h-119z" />
<glyph unicode="g" horiz-adv-x="1124" d="M117 539q0 305 116 422q90 90 250 90q170 0 273 -123v110h202v-1032q0 -195 -119.5 -316.5t-324.5 -121.5q-219 0 -367 137l134 133q98 -92 225 -92q125 0 188 80q55 70 56 184v133q-99 -118 -266 -118h-3q-156 0 -248 92q-116 116 -116 417v5zM326 539q0 -152 36 -224 q49 -102 177 -102q127 0 176 102q35 72 35 224t-35 225q-49 100 -176 100t-177 -100q-36 -72 -36 -217v-8z" />
<glyph unicode="h" horiz-adv-x="1159" d="M166 0v1458h209v-524q109 117 268 117q170 0 265.5 -104.5t95.5 -276.5v-670h-209v637q0 113 -58.5 170t-150.5 57t-150 -55q-61 -61 -61 -172v-637h-209z" />
<glyph unicode="i" horiz-adv-x="540" d="M135 1376q0 55 40 95t95 40t95.5 -40t40.5 -95t-40 -95t-96 -40q-55 0 -95 40t-40 95zM166 0v1038h209v-1038h-209z" />
<glyph unicode="j" horiz-adv-x="540" d="M-39 -246h92q113 0 113 121v1163h209v-1175q0 -125 -68 -201q-76 -86 -217 -86h-129v178zM135 1376q0 55 40 95t95 40t95.5 -40t40.5 -95t-40 -95t-96 -40q-55 0 -95 40t-40 95z" />
<glyph unicode="k" horiz-adv-x="1122" d="M166 0v1458h209v-899l403 479h254l-360 -407l405 -631h-258l-291 479l-153 -174v-305h-209z" />
<glyph unicode="l" horiz-adv-x="636" d="M160 287v1171h209v-1159q0 -121 112 -121h92v-178h-129q-139 0 -215 86q-70 78 -69 201z" />
<glyph unicode="m" horiz-adv-x="1796" d="M166 0v1038h205v-104q106 117 276 117q197 0 295 -152q125 152 326 152q166 0 262 -95q111 -106 110 -292v-664h-208v633q0 117 -62 176q-53 55 -147 55q-90 0 -150 -55q-66 -59 -65 -166v-643h-209v633q0 117 -62 176q-53 55 -147 55t-152 -55q-63 -61 -63 -176v-633 h-209z" />
<glyph unicode="n" horiz-adv-x="1163" d="M166 0v1038h205v-104q109 117 276 117q160 0 256 -95q104 -102 105 -292v-664h-209v633q0 117 -62 176q-53 55 -147 55t-152 -55q-63 -61 -63 -176v-633h-209z" />
<glyph unicode="o" horiz-adv-x="1099" d="M117 520q0 281 120.5 406t311.5 125q193 0 313.5 -125t120.5 -406q0 -283 -121 -407.5t-313 -124.5q-190 0 -311 125t-121 407zM326 520q0 -213 71 -284q61 -61 152 -62q92 0 153 62q72 71 72 284t-72 285q-59 59 -153 59q-92 0 -152 -59q-71 -71 -71 -279v-6z" />
<glyph unicode="p" horiz-adv-x="1132" d="M166 -420v1458h205v-110q102 123 274 123q162 0 254 -93q117 -116 117 -438q0 -324 -117 -440q-92 -92 -252 -92q-172 0 -272 118v-526h-209zM375 520q0 -164 39 -241q49 -104 178 -105q129 0 178 105q37 77 37 241t-37 242q-49 102 -178 102t-178 -102q-39 -78 -39 -242 z" />
<glyph unicode="q" horiz-adv-x="1132" d="M117 520q0 322 116 438q92 92 254 93q172 0 275 -123v110h205v-1458h-209v526q-99 -118 -270 -118h-3q-160 0 -252 92q-116 116 -116 435v5zM326 520q0 -164 39 -241q49 -104 178 -105q129 0 178 105q37 77 37 241t-37 242q-49 102 -178 102t-178 -102q-39 -78 -39 -242z " />
<glyph unicode="r" horiz-adv-x="899" d="M166 0v1038h205v-112q90 125 276 125q150 -1 248 -99l-158 -157q-69 69 -153 69h-2q-88 0 -147.5 -64.5t-59.5 -168.5v-631h-209z" />
<glyph unicode="s" horiz-adv-x="1021" d="M66 137l137 137q105 -108 295 -108h4q227 0 227 143q0 111 -139 123l-166 14q-307 27 -307 287q0 147 114 236q109 82 277 82q252 0 385 -117l-131 -133q-90 76 -256 76q-188 0 -189 -134q0 -106 144 -118l164 -15q309 -27 309 -293q0 -158 -120 -243.5t-312 -85.5 q-285 0 -436 149z" />
<glyph unicode="t" horiz-adv-x="700" d="M72 860v160h118v315h209v-315h201v-160h-201v-561q0 -121 115 -121h86v-178h-125q-137 0 -215 88q-70 80 -70 201v571h-118z" />
<glyph unicode="u" horiz-adv-x="1163" d="M156 375v663h209v-632q0 -115 61 -177q55 -55 147 -55q94 0 154.5 58.5t60.5 173.5v632h209v-1038h-204v104q-105 -116 -274 -116h-3q-160 0 -256 94q-104 102 -104 293z" />
<glyph unicode="v" horiz-adv-x="964" d="M16 1038h222l245 -731l244 731h221l-381 -1038h-170z" />
<glyph unicode="w" horiz-adv-x="1521" d="M16 1038h222l200 -731l242 731h162l239 -731l201 731h223l-323 -1038h-178l-244 725l-242 -725h-180z" />
<glyph unicode="x" horiz-adv-x="1030" d="M45 0l356 530l-342 508h252l205 -338l203 338h252l-340 -508l354 -530h-252l-217 354l-219 -354h-252z" />
<glyph unicode="y" horiz-adv-x="958" d="M16 1038h222l247 -731l242 731h223l-458 -1245q-31 -84 -76 -129q-76 -76 -213 -76h-84v189h53q66 0 96.5 23.5t53.5 86.5l57 162z" />
<glyph unicode="z" horiz-adv-x="960" d="M88 0v166l516 686h-487v186h745v-166l-520 -686h520v-186h-774z" />
<glyph unicode="{" horiz-adv-x="833" d="M92 637v184h76q59 0 97 38t38 124v342q0 141 71.5 213t221.5 72h145v-187h-79q-92 0 -121 -30.5t-29 -128.5v-330q0 -145 -135 -205q135 -59 135 -205v-329q0 -111 41 -140q27 -20 109 -20h79v-187h-145q-150 0 -221.5 72t-71.5 213v342q0 86 -38 124t-97 38h-76z" />
<glyph unicode="|" horiz-adv-x="692" d="M242 -152v1762h209v-1762h-209z" />
<glyph unicode="}" horiz-adv-x="833" d="M92 35h80q92 0 121 30.5t29 129.5v329q0 145 137 205q-137 59 -137 205v330q0 111 -41 139q-27 20 -109 20h-80v187h146q150 0 221 -72t71 -213v-342q0 -86 38 -124t100 -38h73v-184h-73q-61 0 -99.5 -38t-38.5 -124v-342q0 -141 -71.5 -213t-220.5 -72h-146v187z" />
<glyph unicode="~" horiz-adv-x="1175" d="M88 571q90 90 154.5 125t146.5 35q90 0 227 -67q100 -49 164 -50q84 0 174 91l133 -132q-90 -90 -155.5 -124.5t-147.5 -34.5q-92 0 -229 67q-100 49 -162 49q-84 0 -174 -90z" />
<glyph unicode="&#xa1;" horiz-adv-x="679" d="M209 911q0 55 39 94t94 39t94 -39t39 -94t-39 -93t-94 -38t-94 38t-39 93zM215 -420l47 1024h158l49 -1024h-254z" />
<glyph unicode="&#xa2;" horiz-adv-x="1019" d="M113 750q0 223 104 362q100 131 270 160v186h164v-184q166 -20 289 -152l-139 -135q-76 84 -168 98v-671q92 14 168 98l139 -135q-123 -131 -289 -152v-225h-164v227q-170 29 -270 160q-104 139 -104 363zM322 750q0 -166 63 -252q47 -66 121 -80v663q-72 -14 -119 -80 q-66 -90 -65 -251z" />
<glyph unicode="&#xa3;" horiz-adv-x="1155" d="M88 641v160h127v196q0 219 143 351q135 123 344 122q213 0 355 -141l-148 -145q-88 88 -207 88q-125 0 -194.5 -75t-69.5 -216v-180h264v-160h-264v-442h619v-199h-842v641h-127z" />
<glyph unicode="&#xa4;" horiz-adv-x="1361" d="M139 166l150 151q-78 113 -78 254t78 254l-150 150l137 137l150 -149q111 76 254 75q143 0 254 -75l151 149l138 -137l-152 -150q78 -113 78 -254t-78 -254l152 -151l-138 -137l-151 151q-113 -78 -254 -78t-254 78l-150 -151zM401 571q0 -115 82 -196.5t197 -81.5 t196.5 81.5t81.5 196.5t-81.5 196t-196.5 81t-197 -81t-82 -196z" />
<glyph unicode="&#xa5;" horiz-adv-x="1114" d="M10 1458h242l307 -643l303 643h240l-299 -594h178v-159h-260l-53 -105v-106h313v-160h-313v-334h-222v334h-313v160h313v106l-53 105h-260v159h178z" />
<glyph unicode="&#xa6;" horiz-adv-x="704" d="M242 -152v717h209v-717h-209zM242 893v717h209v-717h-209z" />
<glyph unicode="&#xa7;" horiz-adv-x="1112" d="M152 530q0 111 63 203q55 76 135 117q-172 84 -172 274q0 147 102.5 246.5t278.5 99.5t278.5 -93t106.5 -244h-201q-12 156 -184 155q-180 0 -180 -158q0 -121 153 -165l144 -43q291 -88 291 -381q0 -111 -66 -203q-53 -76 -133 -117q180 -80 180 -289q0 -168 -119 -270 q-109 -94 -272 -94q-164 0 -270 84q-121 94 -127 264h205q12 -162 192 -162q88 0 137 46t49 126q0 133 -159 180l-144 44q-289 86 -288 380zM356 535q0 -100 55.5 -160t147.5 -60q90 0 146.5 61t56.5 159q0 109 -60.5 165t-142.5 56q-92 0 -147.5 -59.5t-55.5 -161.5z" />
<glyph unicode="&#xa8;" d="M172 1346q0 47 34 80.5t81 33.5t81.5 -33.5t34.5 -80.5t-34.5 -82t-81.5 -35t-81 34.5t-34 82.5zM621 1346q0 47 34.5 80.5t81.5 33.5t81 -33.5t34 -80.5t-34 -82t-81 -35t-81.5 34.5t-34.5 82.5z" />
<glyph unicode="&#xa9;" horiz-adv-x="1765" d="M141 729q0 307 217 524t525 217q307 0 524 -217t217 -524t-217 -524t-524 -217t-524.5 217t-217.5 524zM291 729q0 -254 172 -428t420 -174t420 174t172 428t-172.5 428t-419.5 174q-248 0 -420 -174t-172 -428zM528 729q0 186 100.5 298t266.5 112q145 0 268 -107 l-94 -96q-82 72 -174 72q-221 0 -221 -279t221 -278q92 0 174 71l94 -96q-119 -106 -268 -107q-166 0 -266.5 112t-100.5 298z" />
<glyph unicode="&#xaa;" horiz-adv-x="925" d="M106 872q0 109 74 174.5t211 65.5h215v57q0 152 -178 152q-115 0 -178 -80l-113 107q100 119 299 118q340 0 340 -284v-553h-166v73q-82 -82 -217 -81q-147 0 -221 73q-66 66 -66 178zM272 877q0 -113 146 -113q106 0 153 45q35 33 35 119v65h-190q-143 0 -144 -116z" />
<glyph unicode="&#xab;" horiz-adv-x="1212" d="M76 557l471 469v-252l-219 -217l219 -219v-252zM594 557l471 469v-252l-221 -217l221 -219v-252z" />
<glyph unicode="&#xac;" horiz-adv-x="1091" d="M98 489v195h893v-483h-194v288h-699z" />
<glyph unicode="&#xad;" horiz-adv-x="872" d="M137 471v195h598v-195h-598z" />
<glyph unicode="&#xae;" horiz-adv-x="1765" d="M141 729q0 307 217 524t525 217q307 0 524 -217t217 -524t-217 -524t-524 -217t-524.5 217t-217.5 524zM289 729q0 -254 172 -429t422 -175q248 0 420 175t172 429t-172.5 429t-419.5 175q-250 0 -422 -175t-172 -429zM625 330v800h301q113 0 185.5 -71.5t72.5 -173.5 q0 -162 -158 -217l178 -338h-166l-164 317h-102v-317h-147zM772 764h135q57 0 94 35t37 86t-36.5 86t-94.5 35h-135v-242z" />
<glyph unicode="&#xaf;" d="M195 1274v149h634v-149h-634z" />
<glyph unicode="&#xb0;" horiz-adv-x="964" d="M125 1124q0 147 104.5 253t251.5 106t253 -106t106 -253t-105.5 -251.5t-253.5 -104.5q-147 0 -251.5 104.5t-104.5 251.5zM297 1124q0 -80 53 -134t131 -54t132.5 54t54.5 134t-54.5 135.5t-132.5 55.5t-131 -55.5t-53 -135.5z" />
<glyph unicode="&#xb1;" horiz-adv-x="1091" d="M104 0v195h883v-195h-883zM104 647v195h345v344h194v-344h344v-195h-344v-346h-194v346h-345z" />
<glyph unicode="&#xb2;" horiz-adv-x="716" d="M92 584v141l330 381q45 51 45 106q0 113 -109 113t-108 -113h-158q0 117 75 185.5t191 68.5q117 0 192 -68.5t75 -185.5q0 -92 -95 -200l-247 -287h342v-141h-533z" />
<glyph unicode="&#xb3;" horiz-adv-x="741" d="M92 831h158q2 -117 123 -116q119 0 119 125q0 123 -125 123h-23v135h23q115 0 114 112q0 115 -110 115q-104 0 -111 -106h-156q2 115 78 181t189 66q117 0 191.5 -69.5t74.5 -179.5q0 -129 -102 -183q114 -59 114 -198q0 -125 -78.5 -194t-197.5 -69q-117 0 -193 62 q-86 68 -88 196z" />
<glyph unicode="&#xb4;" d="M406 1227l153 332h232l-228 -332h-157z" />
<glyph unicode="&#xb6;" horiz-adv-x="1304" d="M78 1051q0 184 126 295.5t335 111.5h575v-1878h-209v1680h-221v-1680h-209v1069q-166 0 -281.5 119t-115.5 283z" />
<glyph unicode="&#xb7;" horiz-adv-x="581" d="M141 565q0 61 44 104.5t106 43.5q61 0 105 -43.5t44 -104.5t-44 -105t-105 -44t-105.5 44t-44.5 105z" />
<glyph unicode="&#xb8;" d="M342 -432l143 301h168l-104 -301h-207z" />
<glyph unicode="&#xb9;" horiz-adv-x="567" d="M82 1126v179l178 153h158v-874h-158v698z" />
<glyph unicode="&#xba;" horiz-adv-x="937" d="M125 1044q0 223 97 322.5t247 99.5q152 0 249 -99.5t97 -322.5q0 -225 -97 -324t-249 -99q-150 0 -247 99t-97 324zM295 1044q0 -170 55 -225q47 -47 119 -47q74 0 124 50t50 222q0 170 -53 224q-47 47 -121 47q-72 0 -119 -47q-55 -55 -55 -224z" />
<glyph unicode="&#xbb;" horiz-adv-x="1212" d="M147 86v252l222 219l-222 217v252l474 -469zM666 86v252l219 219l-219 217v252l473 -469z" />
<glyph unicode="&#xbc;" horiz-adv-x="1654" d="M82 1126v179l178 153h158v-874h-158v698zM369 0l686 1458h166l-686 -1458h-166zM983 125v145l301 604h170l-301 -604h186v170h152v-170h82v-145h-82v-125h-152v125h-356z" />
<glyph unicode="&#xbd;" horiz-adv-x="1693" d="M82 1126v179l178 153h158v-874h-158v698zM352 0l686 1458h166l-686 -1458h-166zM1071 0v141l328 381q45 53 45 107q0 113 -109 112q-109 0 -108 -112h-156q0 117 74 185.5t190 68.5q117 0 192 -69t75 -185q0 -92 -95 -201l-247 -287h342v-141h-531z" />
<glyph unicode="&#xbe;" horiz-adv-x="1728" d="M92 831h158q2 -117 123 -116q119 0 119 125q0 123 -125 123h-23v135h23q115 0 114 112q0 115 -110 115q-104 0 -111 -106h-156q2 115 78 181t189 66q117 0 191.5 -69.5t74.5 -179.5q0 -129 -102 -183q114 -59 114 -198q0 -125 -78.5 -194t-197.5 -69q-117 0 -193 62 q-86 68 -88 196zM455 0l686 1458h166l-686 -1458h-166zM1059 125v145l299 604h172l-301 -604h186v170h150v-170h82v-145h-82v-125h-150v125h-356z" />
<glyph unicode="&#xbf;" horiz-adv-x="1046" d="M113 -39q0 117 96 252l158 221q37 51 36 111v61h209v-74q0 -109 -69 -202l-160 -215q-61 -82 -61 -156q0 -88 55 -145.5t143 -57.5q92 0 145.5 59.5t53.5 145.5h209q0 -172 -117 -282.5t-291 -110.5q-172 0 -287 106q-121 111 -120 287zM377 911q0 55 39 94t94 39t94 -39 t39 -94t-39 -93t-94 -38t-94 38t-39 93z" />
<glyph unicode="&#xc0;" horiz-adv-x="1280" d="M16 0l535 1458h178l535 -1458h-236l-100 293h-576l-100 -293h-236zM354 1932h232l153 -332h-157zM418 481h448l-221 647z" />
<glyph unicode="&#xc1;" horiz-adv-x="1280" d="M16 0l535 1458h178l535 -1458h-236l-100 293h-576l-100 -293h-236zM418 481h448l-221 647zM527 1600l153 332h232l-228 -332h-157z" />
<glyph unicode="&#xc2;" horiz-adv-x="1280" d="M16 0l535 1458h178l535 -1458h-236l-100 293h-576l-100 -293h-236zM281 1600l264 329h176l264 -329h-174l-178 198l-178 -198h-174zM418 481h448l-221 647z" />
<glyph unicode="&#xc3;" horiz-adv-x="1280" d="M16 0l535 1458h178l535 -1458h-236l-100 293h-576l-100 -293h-236zM281 1747q113 113 213 113q72 0 153 -49q66 -39 113 -39q57 0 121 63l98 -96q-113 -113 -213 -113q-72 0 -153 47q-68 39 -115 39q-57 0 -119 -61zM418 481h448l-221 647z" />
<glyph unicode="&#xc4;" horiz-adv-x="1280" d="M16 0l535 1458h178l535 -1458h-236l-100 293h-576l-100 -293h-236zM293 1719q0 47 34 80.5t81 33.5t81.5 -33.5t34.5 -80.5t-34.5 -82t-81.5 -35t-81 34.5t-34 82.5zM418 481h448l-221 647zM742 1719q0 47 34.5 80.5t81.5 33.5t81 -33.5t34 -80.5t-34 -82t-81 -35 t-81.5 34.5t-34.5 82.5z" />
<glyph unicode="&#xc5;" horiz-adv-x="1280" d="M16 0l535 1458h178l535 -1458h-236l-100 293h-576l-100 -293h-236zM377 1792q0 106 75 181t181 75t181 -75t75 -181t-75 -181t-181 -75t-181 74.5t-75 181.5zM418 481h448l-221 647zM502 1792q0 -53 39 -91t92 -38t92 38t39 91t-39 91t-92 38t-92 -38t-39 -91z" />
<glyph unicode="&#xc6;" horiz-adv-x="1949" d="M10 0l766 1458h1061v-198h-711v-429h607v-198h-607v-434h711v-199h-932v332h-481l-172 -332h-242zM520 520h385v740z" />
<glyph unicode="&#xc7;" horiz-adv-x="1228" d="M137 729q0 254 17 344q27 143 125 242q156 156 383 155q231 0 407 -172l-147 -149q-123 123 -260 123q-133 0 -216 -88q-66 -70 -79 -215q-6 -51 -7 -240q0 -188 7 -240q14 -145 79 -215q82 -88 216 -88q137 0 260 123l147 -149q-176 -172 -407 -172q-227 0 -383 155 q-98 98 -125 242q-16 90 -17 344zM455 -432l143 301h168l-104 -301h-207z" />
<glyph unicode="&#xc8;" horiz-adv-x="1234" d="M190 0v1458h932v-198h-710v-426h606v-197h-606v-438h710v-199h-932zM358 1932h232l153 -332h-157z" />
<glyph unicode="&#xc9;" horiz-adv-x="1234" d="M190 0v1458h932v-198h-710v-426h606v-197h-606v-438h710v-199h-932zM531 1600l153 332h232l-228 -332h-157z" />
<glyph unicode="&#xca;" horiz-adv-x="1234" d="M190 0v1458h932v-198h-710v-426h606v-197h-606v-438h710v-199h-932zM285 1600l264 329h176l264 -329h-174l-178 198l-178 -198h-174z" />
<glyph unicode="&#xcb;" horiz-adv-x="1234" d="M190 0v1458h932v-198h-710v-426h606v-197h-606v-438h710v-199h-932zM297 1719q0 47 34 80.5t81 33.5t81.5 -33.5t34.5 -80.5t-34.5 -82t-81.5 -35t-81 34.5t-34 82.5zM746 1719q0 47 34.5 80.5t81.5 33.5t81 -33.5t34 -80.5t-34 -82t-81 -35t-81.5 34.5t-34.5 82.5z" />
<glyph unicode="&#xcc;" horiz-adv-x="602" d="M55 1932h232l153 -332h-157zM190 0v1458h222v-1458h-222z" />
<glyph unicode="&#xcd;" horiz-adv-x="602" d="M164 1600l153 332h232l-228 -332h-157zM190 0v1458h222v-1458h-222z" />
<glyph unicode="&#xce;" horiz-adv-x="602" d="M-61 1600l264 329h176l264 -329h-174l-178 198l-178 -198h-174zM190 0v1458h222v-1458h-222z" />
<glyph unicode="&#xcf;" horiz-adv-x="602" d="M-43 1719q0 47 34 80.5t81 33.5t81.5 -33.5t34.5 -80.5t-34.5 -82t-81.5 -35t-81 34.5t-34 82.5zM190 0v1458h222v-1458h-222zM406 1719q0 47 34.5 80.5t81.5 33.5t81 -33.5t34 -80.5t-34 -82t-81 -35t-81.5 34.5t-34.5 82.5z" />
<glyph unicode="&#xd0;" horiz-adv-x="1400" d="M78 651v170h151v637h512q262 0 412 -194q78 -100 96 -213q15 -80 15 -322q0 -244 -17 -332q-18 -113 -94 -204q-156 -193 -418 -193h-506v651h-151zM451 197h264q184 0 272 129q37 55 46 122.5t9 274.5q0 205 -11 279.5t-52 132.5q-92 127 -264 127h-264v-441h282v-170 h-282v-454z" />
<glyph unicode="&#xd1;" horiz-adv-x="1476" d="M190 0v1458h203l674 -1024v1024h221v-1458h-203l-673 1026v-1026h-222zM387 1747q113 113 213 113q72 0 153 -49q66 -39 113 -39q57 0 121 63l98 -96q-113 -113 -213 -113q-72 0 -153 47q-68 39 -115 39q-57 0 -119 -61z" />
<glyph unicode="&#xd2;" horiz-adv-x="1323" d="M137 729q0 254 17 344q27 143 125 242q156 156 383 155q229 0 385 -155q98 -98 122 -242q17 -88 17 -344t-17 -344q-25 -143 -122 -242q-156 -156 -385 -155q-227 0 -383 155q-98 98 -125 242q-16 90 -17 344zM358 729q0 -186 7 -237q14 -145 79 -216q84 -90 218 -90 q133 0 217 90q66 70 79 216q7 51 7 237t-7 238q-14 145 -79 215q-84 90 -217 90t-218 -90q-66 -70 -79 -215q-6 -51 -7 -238zM383 1932h232l153 -332h-157z" />
<glyph unicode="&#xd3;" horiz-adv-x="1323" d="M137 729q0 254 17 344q27 143 125 242q156 156 383 155q229 0 385 -155q98 -98 122 -242q17 -88 17 -344t-17 -344q-25 -143 -122 -242q-156 -156 -385 -155q-227 0 -383 155q-98 98 -125 242q-16 90 -17 344zM358 729q0 -186 7 -237q14 -145 79 -216q84 -90 218 -90 q133 0 217 90q66 70 79 216q7 51 7 237t-7 238q-14 145 -79 215q-84 90 -217 90t-218 -90q-66 -70 -79 -215q-6 -51 -7 -238zM556 1600l153 332h232l-228 -332h-157z" />
<glyph unicode="&#xd4;" horiz-adv-x="1323" d="M137 729q0 254 17 344q27 143 125 242q156 156 383 155q229 0 385 -155q98 -98 122 -242q17 -88 17 -344t-17 -344q-25 -143 -122 -242q-156 -156 -385 -155q-227 0 -383 155q-98 98 -125 242q-16 90 -17 344zM310 1600l264 329h176l264 -329h-174l-178 198l-178 -198 h-174zM358 729q0 -186 7 -237q14 -145 79 -216q84 -90 218 -90q133 0 217 90q66 70 79 216q7 51 7 237t-7 238q-14 145 -79 215q-84 90 -217 90t-218 -90q-66 -70 -79 -215q-6 -51 -7 -238z" />
<glyph unicode="&#xd5;" horiz-adv-x="1323" d="M137 729q0 254 17 344q27 143 125 242q156 156 383 155q229 0 385 -155q98 -98 122 -242q17 -88 17 -344t-17 -344q-25 -143 -122 -242q-156 -156 -385 -155q-227 0 -383 155q-98 98 -125 242q-16 90 -17 344zM310 1747q113 113 213 113q72 0 153 -49q66 -39 113 -39 q57 0 121 63l98 -96q-113 -113 -213 -113q-72 0 -153 47q-68 39 -115 39q-57 0 -119 -61zM358 729q0 -186 7 -237q14 -145 79 -216q84 -90 218 -90q133 0 217 90q66 70 79 216q7 51 7 237t-7 238q-14 145 -79 215q-84 90 -217 90t-218 -90q-66 -70 -79 -215q-6 -51 -7 -238z " />
<glyph unicode="&#xd6;" horiz-adv-x="1323" d="M137 729q0 254 17 344q27 143 125 242q156 156 383 155q229 0 385 -155q98 -98 122 -242q17 -88 17 -344t-17 -344q-25 -143 -122 -242q-156 -156 -385 -155q-227 0 -383 155q-98 98 -125 242q-16 90 -17 344zM322 1719q0 47 34 80.5t81 33.5t81.5 -33.5t34.5 -80.5 t-34.5 -82t-81.5 -35t-81 34.5t-34 82.5zM358 729q0 -186 7 -237q14 -145 79 -216q84 -90 218 -90q133 0 217 90q66 70 79 216q7 51 7 237t-7 238q-14 145 -79 215q-84 90 -217 90t-218 -90q-66 -70 -79 -215q-6 -51 -7 -238zM771 1719q0 47 34.5 80.5t81.5 33.5t81 -33.5 t34 -80.5t-34 -82t-81 -35t-81.5 34.5t-34.5 82.5z" />
<glyph unicode="&#xd7;" horiz-adv-x="1091" d="M117 270l299 299l-299 299l131 131l297 -299l299 299l131 -131l-299 -299l299 -299l-131 -129l-299 297l-297 -297z" />
<glyph unicode="&#xd8;" horiz-adv-x="1335" d="M137 729q0 254 17 344q27 143 125 242q156 156 383 155q131 0 245 -55l62 133h170l-107 -221q4 -4 15 -12q98 -98 122 -242q17 -88 17 -344t-17 -344q-25 -143 -122 -242q-156 -156 -385 -155q-129 0 -244 55l-64 -133h-168l105 221l-12 12q-98 98 -125 242 q-16 90 -17 344zM360 729q0 -301 41 -389l424 887q-74 45 -163 45q-131 0 -216 -90q-66 -70 -79 -215q-6 -51 -7 -238zM500 231q72 -45 162 -45q133 0 217 90q66 70 79 216q7 51 7 237q0 307 -41 389z" />
<glyph unicode="&#xd9;" horiz-adv-x="1382" d="M168 492v966h221v-956q0 -145 82 -230.5t219 -85.5t220 85t83 231v956h221v-966q0 -223 -149.5 -363.5t-374.5 -140.5t-373.5 140t-148.5 364zM413 1932h232l153 -332h-157z" />
<glyph unicode="&#xda;" horiz-adv-x="1382" d="M168 492v966h221v-956q0 -145 82 -230.5t219 -85.5t220 85t83 231v956h221v-966q0 -223 -149.5 -363.5t-374.5 -140.5t-373.5 140t-148.5 364zM586 1600l153 332h232l-228 -332h-157z" />
<glyph unicode="&#xdb;" horiz-adv-x="1382" d="M168 492v966h221v-956q0 -145 82 -230.5t219 -85.5t220 85t83 231v956h221v-966q0 -223 -149.5 -363.5t-374.5 -140.5t-373.5 140t-148.5 364zM340 1600l264 329h176l264 -329h-174l-178 198l-178 -198h-174z" />
<glyph unicode="&#xdc;" horiz-adv-x="1382" d="M168 492v966h221v-956q0 -145 82 -230.5t219 -85.5t220 85t83 231v956h221v-966q0 -223 -149.5 -363.5t-374.5 -140.5t-373.5 140t-148.5 364zM352 1719q0 47 34 80.5t81 33.5t81.5 -33.5t34.5 -80.5t-34.5 -82t-81.5 -35t-81 34.5t-34 82.5zM801 1719q0 47 34.5 80.5 t81.5 33.5t81 -33.5t34 -80.5t-34 -82t-81 -35t-81.5 34.5t-34.5 82.5z" />
<glyph unicode="&#xdd;" horiz-adv-x="1114" d="M10 1458h242l305 -641l305 641h242l-436 -858v-600h-222v600zM449 1600l153 332h232l-228 -332h-157z" />
<glyph unicode="&#xde;" horiz-adv-x="1304" d="M190 0v1458h222v-280h331q211 0 339 -125t128 -318t-128 -316.5t-339 -123.5h-331v-295h-222zM412 494h317q117 0 187.5 64t70.5 177q0 115 -70.5 179.5t-187.5 64.5h-317v-485z" />
<glyph unicode="&#xdf;" horiz-adv-x="1157" d="M166 0v1069q0 197 123 303q115 100 315 101q188 0 299 -84q121 -92 121 -267q0 -156 -127 -237q129 -66 129 -236v-338q0 -154 -85 -232.5t-232 -78.5h-109v178h66q63 0 106 35t43 117v319q0 74 -39 111t-104 37h-72v166h64q68 0 109.5 39.5t41.5 113.5q0 76 -52 124 t-165 48q-221 0 -221 -231v-1057h-211z" />
<glyph unicode="&#xe0;" horiz-adv-x="1085" d="M88 305q0 135 92 217t266 82h275v74q0 195 -227 194q-150 0 -228 -100l-137 129q72 84 160 119q80 31 213 31q428 0 428 -357v-694h-205v94q-106 -106 -276 -106q-186 0 -279 94q-82 84 -82 223zM247 1559h232l153 -332h-157zM291 309q0 -147 190 -147q133 0 195 59 q45 43 45 154v84h-244q-186 0 -186 -150z" />
<glyph unicode="&#xe1;" horiz-adv-x="1085" d="M88 305q0 135 92 217t266 82h275v74q0 195 -227 194q-150 0 -228 -100l-137 129q72 84 160 119q80 31 213 31q428 0 428 -357v-694h-205v94q-106 -106 -276 -106q-186 0 -279 94q-82 84 -82 223zM291 309q0 -147 190 -147q133 0 195 59q45 43 45 154v84h-244 q-186 0 -186 -150zM420 1227l153 332h232l-228 -332h-157z" />
<glyph unicode="&#xe2;" horiz-adv-x="1085" d="M88 305q0 135 92 217t266 82h275v74q0 195 -227 194q-150 0 -228 -100l-137 129q72 84 160 119q80 31 213 31q428 0 428 -357v-694h-205v94q-106 -106 -276 -106q-186 0 -279 94q-82 84 -82 223zM174 1227l264 329h176l264 -329h-174l-178 198l-178 -198h-174zM291 309 q0 -147 190 -147q133 0 195 59q45 43 45 154v84h-244q-186 0 -186 -150z" />
<glyph unicode="&#xe3;" horiz-adv-x="1085" d="M88 305q0 135 92 217t266 82h275v74q0 195 -227 194q-150 0 -228 -100l-137 129q72 84 160 119q80 31 213 31q428 0 428 -357v-694h-205v94q-106 -106 -276 -106q-186 0 -279 94q-82 84 -82 223zM174 1374q113 113 213 113q72 0 153 -49q66 -39 113 -39q57 0 121 63 l98 -96q-113 -113 -213 -113q-72 0 -153 47q-68 39 -115 39q-57 0 -119 -61zM291 309q0 -147 190 -147q133 0 195 59q45 43 45 154v84h-244q-186 0 -186 -150z" />
<glyph unicode="&#xe4;" horiz-adv-x="1085" d="M88 305q0 135 92 217t266 82h275v74q0 195 -227 194q-150 0 -228 -100l-137 129q72 84 160 119q80 31 213 31q428 0 428 -357v-694h-205v94q-106 -106 -276 -106q-186 0 -279 94q-82 84 -82 223zM186 1346q0 47 34 80.5t81 33.5t81.5 -33.5t34.5 -80.5t-34.5 -82 t-81.5 -35t-81 34.5t-34 82.5zM291 309q0 -147 190 -147q133 0 195 59q45 43 45 154v84h-244q-186 0 -186 -150zM635 1346q0 47 34.5 80.5t81.5 33.5t81 -33.5t34 -80.5t-34 -82t-81 -35t-81.5 34.5t-34.5 82.5z" />
<glyph unicode="&#xe5;" horiz-adv-x="1085" d="M88 305q0 135 92 217t266 82h275v74q0 195 -227 194q-150 0 -228 -100l-137 129q72 84 160 119q80 31 213 31q428 0 428 -357v-694h-205v94q-106 -106 -276 -106q-186 0 -279 94q-82 84 -82 223zM270 1436q0 106 75 181t181 75t181 -75t75 -181t-75 -181t-181 -75 t-181 74.5t-75 181.5zM291 309q0 -147 190 -147q133 0 195 59q45 43 45 154v84h-244q-186 0 -186 -150zM395 1436q0 -53 39 -91t92 -38t92 38t39 91t-39 91t-92 38t-92 -38t-39 -91z" />
<glyph unicode="&#xe6;" horiz-adv-x="1714" d="M88 305q0 135 92 217t266 82h275v74q0 195 -227 194q-150 0 -228 -100l-137 129q72 84 160 119q80 31 213 31q256 0 352 -138q113 137 307 138q205 0 326 -140q115 -135 115 -360v-92h-674q0 -135 68.5 -213t195.5 -78q145 0 252 106l133 -124q-84 -84 -166 -121 q-92 -41 -223 -41q-246 0 -367 162q-76 -92 -161 -127t-211 -35q-186 0 -279 94q-82 84 -82 223zM291 309q0 -147 190 -147q133 0 195 59q45 43 45 154v84h-244q-186 0 -186 -150zM928 604h467q-2 86 -27 141q-55 131 -207 132q-150 0 -205 -132q-27 -61 -28 -141z" />
<glyph unicode="&#xe7;" horiz-adv-x="999" d="M113 520q0 272 143 412q123 119 319 119q205 0 343 -146l-144 -139q-90 98 -199 98q-121 0 -192 -92q-61 -80 -61 -252q0 -174 61 -254q72 -92 192 -92q109 0 199 98l144 -137q-139 -147 -343 -147q-197 0 -319 121q-143 139 -143 411zM342 -432l143 301h168l-104 -301 h-207z" />
<glyph unicode="&#xe8;" horiz-adv-x="1103" d="M113 520q0 250 118.5 390.5t321.5 140.5q205 0 326 -140q115 -135 114 -360v-92h-674q0 -135 69 -213t196 -78q145 0 252 106l133 -124q-84 -84 -166 -121q-92 -41 -223 -41q-467 0 -467 532zM280 1559h232l153 -332h-157zM319 604h467q-2 80 -28 141q-55 131 -205 132 q-152 0 -207 -132q-25 -55 -27 -141z" />
<glyph unicode="&#xe9;" horiz-adv-x="1103" d="M113 520q0 250 118.5 390.5t321.5 140.5q205 0 326 -140q115 -135 114 -360v-92h-674q0 -135 69 -213t196 -78q145 0 252 106l133 -124q-84 -84 -166 -121q-92 -41 -223 -41q-467 0 -467 532zM319 604h467q-2 80 -28 141q-55 131 -205 132q-152 0 -207 -132 q-25 -55 -27 -141zM453 1227l153 332h232l-228 -332h-157z" />
<glyph unicode="&#xea;" horiz-adv-x="1103" d="M113 520q0 250 118.5 390.5t321.5 140.5q205 0 326 -140q115 -135 114 -360v-92h-674q0 -135 69 -213t196 -78q145 0 252 106l133 -124q-84 -84 -166 -121q-92 -41 -223 -41q-467 0 -467 532zM207 1227l264 329h176l264 -329h-174l-178 198l-178 -198h-174zM319 604h467 q-2 80 -28 141q-55 131 -205 132q-152 0 -207 -132q-25 -55 -27 -141z" />
<glyph unicode="&#xeb;" horiz-adv-x="1103" d="M113 520q0 250 118.5 390.5t321.5 140.5q205 0 326 -140q115 -135 114 -360v-92h-674q0 -135 69 -213t196 -78q145 0 252 106l133 -124q-84 -84 -166 -121q-92 -41 -223 -41q-467 0 -467 532zM219 1346q0 47 34 80.5t81 33.5t81.5 -33.5t34.5 -80.5t-34.5 -82t-81.5 -35 t-81 34.5t-34 82.5zM319 604h467q-2 80 -28 141q-55 131 -205 132q-152 0 -207 -132q-25 -55 -27 -141zM668 1346q0 47 34.5 80.5t81.5 33.5t81 -33.5t34 -80.5t-34 -82t-81 -35t-81.5 34.5t-34.5 82.5z" />
<glyph unicode="&#xec;" horiz-adv-x="540" d="M30 1559h232l153 -332h-157zM166 0v1038h209v-1038h-209z" />
<glyph unicode="&#xed;" horiz-adv-x="540" d="M136 1227l153 332h232l-228 -332h-157zM166 0v1038h209v-1038h-209z" />
<glyph unicode="&#xee;" horiz-adv-x="540" d="M-86 1227l264 329h176l264 -329h-174l-178 198l-178 -198h-174zM166 0v1038h209v-1038h-209z" />
<glyph unicode="&#xef;" horiz-adv-x="540" d="M-74 1346q0 47 34 80.5t81 33.5t81.5 -33.5t34.5 -80.5t-34.5 -82t-81.5 -35t-81 34.5t-34 82.5zM166 0v1038h209v-1038h-209zM375 1346q0 47 34.5 80.5t81.5 33.5t81 -33.5t34 -80.5t-34 -82t-81 -35t-81.5 34.5t-34.5 82.5z" />
<glyph unicode="&#xf0;" horiz-adv-x="1099" d="M125 510q0 276 121 401q80 82 213 105q84 14 155 -4l-92 166h-237v147h159l-79 143h221l80 -143h178v-147h-103l105 -193q78 -143 103.5 -237.5t25.5 -237.5q0 -276 -119 -399t-307 -123q-186 0 -305 122.5t-119 399.5zM334 510q0 -207 67 -277q57 -59 148 -59 q92 0 149 59q68 70 68 277t-68 276q-57 59 -149 60q-90 0 -148 -60q-68 -70 -67 -276z" />
<glyph unicode="&#xf1;" horiz-adv-x="1163" d="M166 0v1038h205v-104q109 117 276 117q160 0 256 -95q104 -102 105 -292v-664h-209v633q0 117 -62 176q-53 55 -147 55t-152 -55q-63 -61 -63 -176v-633h-209zM236 1374q113 113 213 113q72 0 153 -49q66 -39 113 -39q57 0 121 63l98 -96q-113 -113 -213 -113 q-72 0 -153 47q-68 39 -115 39q-57 0 -119 -61z" />
<glyph unicode="&#xf2;" horiz-adv-x="1099" d="M117 520q0 281 120.5 406t311.5 125q193 0 313.5 -125t120.5 -406q0 -283 -121 -407.5t-313 -124.5q-190 0 -311 125t-121 407zM256 1559h232l153 -332h-157zM326 520q0 -213 71 -284q61 -61 152 -62q92 0 153 62q72 71 72 284t-72 285q-59 59 -153 59q-92 0 -152 -59 q-72 -72 -71 -285z" />
<glyph unicode="&#xf3;" horiz-adv-x="1099" d="M117 520q0 281 120.5 406t311.5 125q193 0 313.5 -125t120.5 -406q0 -283 -121 -407.5t-313 -124.5q-190 0 -311 125t-121 407zM326 520q0 -213 71 -284q61 -61 152 -62q92 0 153 62q72 71 72 284t-72 285q-59 59 -153 59q-92 0 -152 -59q-72 -72 -71 -285zM443 1227 l153 332h232l-228 -332h-157z" />
<glyph unicode="&#xf4;" horiz-adv-x="1099" d="M117 520q0 281 120.5 406t311.5 125q193 0 313.5 -125t120.5 -406q0 -283 -121 -407.5t-313 -124.5q-190 0 -311 125t-121 407zM197 1227l264 329h176l264 -329h-174l-178 198l-178 -198h-174zM326 520q0 -213 71 -284q61 -61 152 -62q92 0 153 62q72 71 72 284t-72 285 q-59 59 -153 59q-92 0 -152 -59q-72 -72 -71 -285z" />
<glyph unicode="&#xf5;" horiz-adv-x="1099" d="M117 520q0 281 120.5 406t311.5 125q193 0 313.5 -125t120.5 -406q0 -283 -121 -407.5t-313 -124.5q-190 0 -311 125t-121 407zM197 1374q113 113 213 113q72 0 153 -49q66 -39 113 -39q57 0 121 63l98 -96q-113 -113 -213 -113q-72 0 -153 47q-68 39 -115 39 q-57 0 -119 -61zM326 520q0 -213 71 -284q61 -61 152 -62q92 0 153 62q72 71 72 284t-72 285q-59 59 -153 59q-92 0 -152 -59q-72 -72 -71 -285z" />
<glyph unicode="&#xf6;" horiz-adv-x="1099" d="M117 520q0 281 120.5 406t311.5 125q193 0 313.5 -125t120.5 -406q0 -283 -121 -407.5t-313 -124.5q-190 0 -311 125t-121 407zM209 1346q0 47 34 80.5t81 33.5t81.5 -33.5t34.5 -80.5t-34.5 -82t-81.5 -35t-81 34.5t-34 82.5zM326 520q0 -213 71 -284q61 -61 152 -62 q92 0 153 62q72 71 72 284t-72 285q-59 59 -153 59q-92 0 -152 -59q-72 -72 -71 -285zM658 1346q0 47 34.5 80.5t81.5 33.5t81 -33.5t34 -80.5t-34 -82t-81 -35t-81.5 34.5t-34.5 82.5z" />
<glyph unicode="&#xf7;" horiz-adv-x="1091" d="M98 471v195h893v-195h-893zM397 172q0 61 43 105.5t105 44.5q61 0 105 -44.5t44 -105.5t-44 -105t-105 -44t-104.5 44t-43.5 105zM397 965q0 61 43 105t105 44q61 0 105 -44t44 -105t-44 -104.5t-105 -43.5t-104.5 43t-43.5 105z" />
<glyph unicode="&#xf8;" horiz-adv-x="1099" d="M117 520q0 281 120.5 406t311.5 125q119 0 215 -52l76 129h141l-121 -200q123 -127 123 -408q0 -283 -121 -407.5t-313 -124.5q-117 0 -213 51l-76 -129h-141l119 203q-121 125 -121 407zM326 520q0 -152 30 -223l316 532q-53 35 -123 35q-92 0 -152 -59 q-72 -72 -71 -285zM428 211q53 -37 121 -37q92 0 153 62q72 71 72 284q0 152 -31 223z" />
<glyph unicode="&#xf9;" horiz-adv-x="1163" d="M156 375v663h209v-632q0 -115 61 -177q55 -55 147 -55q94 0 154.5 58.5t60.5 173.5v632h209v-1038h-204v104q-106 -117 -277 -116q-160 0 -256 94q-104 102 -104 293zM296 1559h232l153 -332h-157z" />
<glyph unicode="&#xfa;" horiz-adv-x="1163" d="M156 375v663h209v-632q0 -115 61 -177q55 -55 147 -55q94 0 154.5 58.5t60.5 173.5v632h209v-1038h-204v104q-106 -117 -277 -116q-160 0 -256 94q-104 102 -104 293zM469 1227l153 332h232l-228 -332h-157z" />
<glyph unicode="&#xfb;" horiz-adv-x="1163" d="M156 375v663h209v-632q0 -115 61 -177q55 -55 147 -55q94 0 154.5 58.5t60.5 173.5v632h209v-1038h-204v104q-106 -117 -277 -116q-160 0 -256 94q-104 102 -104 293zM223 1227l264 329h176l264 -329h-174l-178 198l-178 -198h-174z" />
<glyph unicode="&#xfc;" horiz-adv-x="1163" d="M156 375v663h209v-632q0 -115 61 -177q55 -55 147 -55q94 0 154.5 58.5t60.5 173.5v632h209v-1038h-204v104q-106 -117 -277 -116q-160 0 -256 94q-104 102 -104 293zM235 1346q0 47 34 80.5t81 33.5t81.5 -33.5t34.5 -80.5t-34.5 -82t-81.5 -35t-81 34.5t-34 82.5z M684 1346q0 47 34.5 80.5t81.5 33.5t81 -33.5t34 -80.5t-34 -82t-81 -35t-81.5 34.5t-34.5 82.5z" />
<glyph unicode="&#xfd;" horiz-adv-x="958" d="M16 1038h222l247 -731l242 731h223l-458 -1245q-31 -84 -76 -129q-76 -76 -213 -76h-84v189h53q66 0 96.5 23.5t53.5 86.5l57 162zM373 1227l153 332h232l-228 -332h-157z" />
<glyph unicode="&#xfe;" horiz-adv-x="1134" d="M166 -420v1878h209v-524q98 117 272 117q160 0 252 -93q117 -116 117 -438q0 -324 -117 -440q-92 -92 -252 -92q-172 0 -272 118v-526h-209zM375 520q0 -164 39 -241q49 -104 178 -105q129 0 178 105q37 77 37 241t-37 242q-49 102 -178 102t-178 -102q-39 -78 -39 -242z " />
<glyph unicode="&#xff;" horiz-adv-x="958" d="M16 1038h222l247 -731l242 731h223l-458 -1245q-31 -84 -76 -129q-76 -76 -213 -76h-84v189h53q66 0 96.5 23.5t53.5 86.5l57 162zM139 1346q0 47 34 80.5t81 33.5t81.5 -33.5t34.5 -80.5t-34.5 -82t-81.5 -35t-81 34.5t-34 82.5zM588 1346q0 47 34.5 80.5t81.5 33.5 t81 -33.5t34 -80.5t-34 -82t-81 -35t-81.5 34.5t-34.5 82.5z" />
<glyph unicode="&#x152;" horiz-adv-x="2000" d="M137 729q0 252 19 348q27 145 123 242q152 152 378 151q195 0 308 -131v119h921v-196h-700v-431h596v-192h-596v-442h702v-197h-923v119q-113 -131 -308 -131q-227 0 -378 151q-96 96 -123 242q-18 96 -19 348zM360 729q0 -186 7 -237q14 -145 79 -216q84 -90 216 -90 q133 0 217 90q66 70 79 216q7 51 7 237t-7 238q-14 145 -79 215q-84 90 -217 90q-131 0 -216 -90q-66 -70 -79 -215q-6 -51 -7 -238z" />
<glyph unicode="&#x153;" horiz-adv-x="1765" d="M117 520q0 281 120.5 406t311.5 125q229 0 336 -166q109 166 327 166q205 0 326 -140q115 -135 115 -360v-92h-674q0 -135 68.5 -213t195.5 -78q145 0 252 106l133 -124q-86 -86 -166 -121q-90 -41 -221 -41q-242 0 -358 164q-106 -164 -334 -164q-190 0 -311 125 t-121 407zM326 520q0 -213 71 -284q61 -61 152 -62q92 0 153 62q72 71 72 284t-72 285q-59 59 -153 59q-92 0 -152 -59q-72 -72 -71 -285zM979 604h467q-2 86 -27 141q-55 131 -207 132q-150 0 -204 -132q-27 -61 -29 -141z" />
<glyph unicode="&#x178;" horiz-adv-x="1114" d="M10 1458h242l305 -641l305 641h242l-436 -858v-600h-222v600zM215 1719q0 47 34 80.5t81 33.5t81.5 -33.5t34.5 -80.5t-34.5 -82t-81.5 -35t-81 34.5t-34 82.5zM664 1719q0 47 34.5 80.5t81.5 33.5t81 -33.5t34 -80.5t-34 -82t-81 -35t-81.5 34.5t-34.5 82.5z" />
<glyph unicode="&#x2c6;" d="M160 1227l264 329h176l264 -329h-174l-178 198l-178 -198h-174z" />
<glyph unicode="&#x2dc;" d="M160 1374q113 113 213 113q72 0 153 -49q66 -39 113 -39q57 0 121 63l98 -96q-113 -113 -213 -113q-72 0 -153 47q-68 39 -115 39q-57 0 -119 -61z" />
<glyph unicode="&#x2000;" />
<glyph unicode="&#x2001;" horiz-adv-x="2048" />
<glyph unicode="&#x2002;" />
<glyph unicode="&#x2003;" horiz-adv-x="2048" />
<glyph unicode="&#x2004;" horiz-adv-x="682" />
<glyph unicode="&#x2005;" horiz-adv-x="512" />
<glyph unicode="&#x2006;" horiz-adv-x="341" />
<glyph unicode="&#x2007;" horiz-adv-x="341" />
<glyph unicode="&#x2008;" horiz-adv-x="256" />
<glyph unicode="&#x2009;" horiz-adv-x="409" />
<glyph unicode="&#x200a;" horiz-adv-x="113" />
<glyph unicode="&#x2010;" horiz-adv-x="872" d="M137 471v195h598v-195h-598z" />
<glyph unicode="&#x2011;" horiz-adv-x="872" d="M137 471v195h598v-195h-598z" />
<glyph unicode="&#x2012;" horiz-adv-x="872" d="M137 471v195h598v-195h-598z" />
<glyph unicode="&#x2013;" horiz-adv-x="1091" d="M104 471v195h883v-195h-883z" />
<glyph unicode="&#x2014;" horiz-adv-x="1990" d="M137 473v199h1716v-199h-1716z" />
<glyph unicode="&#x2018;" horiz-adv-x="548" d="M160 1245v213l229 191v-404h-229z" />
<glyph unicode="&#x2019;" horiz-adv-x="548" d="M160 1057v401h229v-215z" />
<glyph unicode="&#x201a;" horiz-adv-x="546" d="M160 -188v403h229v-215z" />
<glyph unicode="&#x201c;" horiz-adv-x="940" d="M160 1245v213l229 191v-404h-229zM551 1245v213l229 191v-404h-229z" />
<glyph unicode="&#x201d;" horiz-adv-x="940" d="M160 1057v401h229v-215zM551 1057v401h229v-215z" />
<glyph unicode="&#x201e;" horiz-adv-x="942" d="M160 -188v403h229v-215zM551 -188v403h229v-215z" />
<glyph unicode="&#x2022;" horiz-adv-x="1048" d="M190 684q0 139 98.5 236.5t235.5 97.5q139 0 236.5 -97.5t97.5 -236.5q0 -137 -97 -235.5t-237 -98.5q-137 0 -235.5 98.5t-98.5 235.5z" />
<glyph unicode="&#x2026;" horiz-adv-x="1644" d="M141 143q0 61 44 104.5t106 43.5q61 0 105 -43.5t44 -104.5t-44 -105t-105 -44t-105.5 44t-44.5 105zM674 143q0 61 43 104.5t104 43.5t105.5 -43.5t44.5 -104.5t-44 -105t-106 -44q-61 0 -104 44t-43 105zM1204 143q0 61 44 104.5t106 43.5q61 0 105 -43.5t44 -104.5 t-44 -105t-105 -44t-105.5 44t-44.5 105z" />
<glyph unicode="&#x202f;" horiz-adv-x="409" />
<glyph unicode="&#x2039;" horiz-adv-x="694" d="M76 557l471 469v-252l-219 -217l219 -219v-252z" />
<glyph unicode="&#x203a;" horiz-adv-x="694" d="M147 86v252l222 219l-222 217v252l474 -469z" />
<glyph unicode="&#x205f;" horiz-adv-x="512" />
<glyph unicode="&#x2122;" horiz-adv-x="1808" d="M84 1317v141h625v-141h-236v-733h-156v733h-233zM854 584v874h158l256 -497l258 497h157v-874h-157v571l-185 -367h-145l-184 367v-571h-158z" />
<glyph unicode="&#xe000;" horiz-adv-x="1034" d="M0 0v1034h1034v-1034h-1034z" />
</font>
</defs>
</svg>
